<svg xmlns="http://www.w3.org/2000/svg" viewBox="0 0 800 800" width="800" height="800" role="img">
<defs>
  <linearGradient id="bg" x1="0" y1="0" x2="1" y2="1">
    <stop offset="0%" stop-color="#fff7fb"/>
    <stop offset="100%" stop-color="#eef7fd"/>
  </linearGradient>
  <radialGradient id="glow" cx="50%" cy="42%" r="62%">
    <stop offset="0%" stop-color="#ffffff" stop-opacity="0.95"/>
    <stop offset="100%" stop-color="#ffffff" stop-opacity="0"/>
  </radialGradient>
  <filter id="soft" x="-20%" y="-20%" width="140%" height="140%">
    <feDropShadow dx="0" dy="14" stdDeviation="16" flood-color="#c9a99a" flood-opacity="0.28"/>
  </filter>
</defs>
<rect width="800" height="800" fill="url(#bg)"/>
<circle cx="400" cy="330" r="290" fill="url(#glow)"/>
<ellipse cx="400" cy="735" rx="235" ry="34" fill="#d9c3b4" opacity="0.35"/>

<g filter="url(#soft)" transform="translate(400 400) scale(1.02) translate(-400 -400)">
<ellipse cx="400" cy="596" rx="212" ry="186" fill="#c99a6d"/>
<ellipse cx="178" cy="566" rx="62" ry="94" fill="#c99a6d" transform="rotate(-18 178 566)"/>
<ellipse cx="622" cy="566" rx="62" ry="94" fill="#c99a6d" transform="rotate(18 622 566)"/>
<ellipse cx="300" cy="734" rx="82" ry="58" fill="#c99a6d"/>
<ellipse cx="500" cy="734" rx="82" ry="58" fill="#c99a6d"/>
<ellipse cx="300" cy="736" rx="44" ry="30" fill="#f0dcc2" opacity="0.8"/>
<ellipse cx="500" cy="736" rx="44" ry="30" fill="#f0dcc2" opacity="0.8"/>
<circle cx="258" cy="182" r="76" fill="#c99a6d"/>
<circle cx="258" cy="186" r="42" fill="#f0dcc2" opacity="0.85"/>
<circle cx="542" cy="182" r="76" fill="#c99a6d"/>
<circle cx="542" cy="186" r="42" fill="#f0dcc2" opacity="0.85"/>
<circle cx="400" cy="320" r="182" fill="#c99a6d"/>
<ellipse cx="400" cy="320" rx="156" ry="156" fill="none" stroke="#ffffff" stroke-width="5" stroke-dasharray="14 14" opacity="0.55"/>
<ellipse cx="400" cy="392" rx="98" ry="74" fill="#f0dcc2"/>
<ellipse cx="326" cy="318" rx="25" ry="29" fill="#5a4232"/>
<ellipse cx="474" cy="318" rx="25" ry="29" fill="#5a4232"/>
<circle cx="334" cy="308" r="9" fill="#ffffff" opacity="0.95"/>
<circle cx="482" cy="308" r="9" fill="#ffffff" opacity="0.95"/>
<ellipse cx="400" cy="366" rx="27" ry="19" fill="#5a4232"/>
<ellipse cx="392" cy="360" rx="8" ry="5" fill="#ffffff" opacity="0.45"/>
<path d="M400 385 q-30 32 -54 4 M400 385 q30 32 54 4" stroke="#5a4232" stroke-width="9" fill="none" stroke-linecap="round"/>
<ellipse cx="272" cy="382" rx="38" ry="22" fill="#f79ab4" opacity="0.45"/>
<ellipse cx="528" cy="382" rx="38" ry="22" fill="#f79ab4" opacity="0.45"/>
<g transform="translate(400 466) scale(1.0)">
  <path d="M0 0 L-70 -42 L-70 42 Z" fill="#ef97b3"/>
  <path d="M0 0 L70 -42 L70 42 Z" fill="#ef97b3"/>
  <circle cx="0" cy="0" r="20" fill="#ffffff" opacity="0.75"/>
</g>
</g>
<path d="M0 0 c-14 -12 -30 2 0 24 c30 -22 14 -36 0 -24 z" fill="#f5b8cc" opacity="0.85" transform="translate(120 170) scale(1.6)"/><path d="M0 0 c-14 -12 -30 2 0 24 c30 -22 14 -36 0 -24 z" fill="#f5b8cc" opacity="0.73" transform="translate(690 210) scale(1.4000000000000001)"/><path d="M0 0 c-14 -12 -30 2 0 24 c30 -22 14 -36 0 -24 z" fill="#f5b8cc" opacity="0.61" transform="translate(110 560) scale(1.2000000000000002)"/><path d="M0 0 c-14 -12 -30 2 0 24 c30 -22 14 -36 0 -24 z" fill="#f5b8cc" opacity="0.49" transform="translate(700 580) scale(1.0)"/><path d="M0 0 c-14 -12 -30 2 0 24 c30 -22 14 -36 0 -24 z" fill="#f5b8cc" opacity="0.37" transform="translate(400 96) scale(0.8)"/><path d="M0 0 l6 16 l16 6 l-16 6 l-6 16 l-6 -16 l-16 -6 l16 -6 z" fill="#f0b429" opacity="0.85" transform="translate(210 470) scale(1.3)"/><path d="M0 0 l6 16 l16 6 l-16 6 l-6 16 l-6 -16 l-16 -6 l16 -6 z" fill="#f0b429" opacity="0.85" transform="translate(620 430) scale(1.05)"/><path d="M0 0 l6 16 l16 6 l-16 6 l-6 16 l-6 -16 l-16 -6 l16 -6 z" fill="#f0b429" opacity="0.85" transform="translate(260 660) scale(0.8)"/><path d="M0 0 l6 16 l16 6 l-16 6 l-6 16 l-6 -16 l-16 -6 l16 -6 z" fill="#f0b429" opacity="0.85" transform="translate(560 690) scale(0.55)"/></svg>
